<?xml version="1.0" encoding="UTF-8" standalone="no"?>
<svg width="80px" height="45px" viewBox="0 0 80 45" version="1.1" xmlns="http://www.w3.org/2000/svg" xmlns:xlink="http://www.w3.org/1999/xlink">
    <!-- Generator: Sketch 41 (35326) - http://www.bohemiancoding.com/sketch -->
    <title>MasterCard</title>
    <desc>Created with Sketch.</desc>
    <defs></defs>
    <g id="Page-1" stroke="none" stroke-width="1" fill="none" fill-rule="evenodd">
        <g id="MasterCard">
            <g id="g5473" transform="translate(11.000000, 0.000000)">
                <g id="g3806" transform="translate(30.059645, 41.562433) scale(1, -1) translate(-30.059645, -41.562433) translate(3.157471, 38.138520)" fill="#231F20">
                    <path d="M53.0167494,0.625575396 L53.0167494,0.510760695 L53.1226465,0.510760695 C53.1460553,0.510760695 53.16612,0.516334224 53.1806112,0.525251871 C53.1939877,0.534169518 53.2017906,0.549775399 53.2017906,0.568725398 C53.2017906,0.587675397 53.1939877,0.602166573 53.1806112,0.61108422 C53.16612,0.621116572 53.1460553,0.625575396 53.1226465,0.625575396 L53.0167494,0.625575396 Z M53.1237612,0.705834215 C53.1783818,0.705834215 53.2207406,0.693572451 53.2508376,0.669048923 C53.2809347,0.644525395 53.2954259,0.61108422 53.2954259,0.568725398 C53.2954259,0.533054812 53.2842788,0.50407246 53.2597553,0.480663638 C53.2363465,0.458369521 53.2029053,0.443878345 53.1583171,0.438304816 L53.29877,0.276672471 L53.1895288,0.276672471 L53.0591082,0.43719011 L53.0167494,0.43719011 L53.0167494,0.276672471 L52.9253435,0.276672471 L52.9253435,0.705834215 L53.1237612,0.705834215 Z M53.0958935,0.128416595 C53.1460553,0.128416595 53.1928729,0.138448948 53.2352318,0.157398947 C53.2787053,0.176348946 53.3166053,0.20198718 53.3489318,0.234313649 C53.3812582,0.266640118 53.4068965,0.304540116 53.4258465,0.34912835 C53.4436818,0.392601877 53.4537141,0.439419522 53.4537141,0.489581284 C53.4537141,0.539743047 53.4436818,0.586560692 53.4258465,0.630034219 C53.4068965,0.673507746 53.3812582,0.71252245 53.3489318,0.744848919 C53.3166053,0.777175389 53.2787053,0.802813623 53.2352318,0.821763622 C53.1928729,0.839598915 53.1460553,0.848516562 53.0958935,0.848516562 C53.0457318,0.848516562 52.9977994,0.839598915 52.9543259,0.821763622 C52.9097377,0.802813623 52.870723,0.777175389 52.8383965,0.744848919 C52.80607,0.71252245 52.7804318,0.673507746 52.7625965,0.630034219 C52.7436465,0.586560692 52.7347288,0.539743047 52.7347288,0.489581284 C52.7347288,0.439419522 52.7436465,0.392601877 52.7625965,0.34912835 C52.7804318,0.304540116 52.80607,0.266640118 52.8383965,0.234313649 C52.870723,0.20198718 52.9097377,0.176348946 52.9543259,0.157398947 C52.9977994,0.138448948 53.0457318,0.128416595 53.0958935,0.128416595 L53.0958935,0.128416595 Z M53.0958935,0.952184204 C53.1616612,0.952184204 53.2218553,0.93992244 53.27982,0.915398912 C53.33667,0.891990089 53.3857171,0.858548914 53.4291906,0.816190093 C53.4715494,0.774945977 53.5049906,0.72589892 53.5295141,0.669048923 C53.5540376,0.613313631 53.5662994,0.553119517 53.5662994,0.489581284 C53.5662994,0.426043052 53.5540376,0.365848937 53.5295141,0.310113646 C53.5049906,0.254378354 53.4715494,0.205331298 53.4291906,0.162972476 C53.3857171,0.12172836 53.33667,0.0882871854 53.27982,0.0637636571 C53.2218553,0.0392401288 53.1616612,0.0269783647 53.0958935,0.0269783647 C53.0290112,0.0269783647 52.9677024,0.0392401288 52.9097377,0.0637636571 C52.851773,0.0882871854 52.8016112,0.12172836 52.7592524,0.162972476 C52.7168936,0.205331298 52.6834524,0.254378354 52.6589289,0.310113646 C52.6344053,0.365848937 52.6221436,0.426043052 52.6221436,0.489581284 C52.6221436,0.553119517 52.6344053,0.613313631 52.6589289,0.669048923 C52.6834524,0.72589892 52.7168936,0.774945977 52.7592524,0.816190093 C52.8016112,0.858548914 52.851773,0.891990089 52.9097377,0.915398912 C52.9677024,0.93992244 53.0290112,0.952184204 53.0958935,0.952184204 L53.0958935,0.952184204 Z M9.66583968,2.60529295 C9.66583968,3.42348703 10.2020132,4.09565465 11.078172,4.09565465 C11.915316,4.09565465 12.4804719,3.45246938 12.4804719,2.60529295 C12.4804719,1.75811652 11.915316,1.11493126 11.078172,1.11493126 C10.2020132,1.11493126 9.66583968,1.78709887 9.66583968,2.60529295 L9.66583968,2.60529295 Z M13.4346601,2.60529295 L13.4346601,4.93279872 L12.4225072,4.93279872 L12.4225072,4.36764287 C12.1014719,4.78677226 11.6143455,5.04984284 10.9522102,5.04984284 C9.64688968,5.04984284 8.62358973,4.02654288 8.62358973,2.60529295 C8.62358973,1.18292831 9.64688968,0.160743064 10.9522102,0.160743064 C11.6143455,0.160743064 12.1014719,0.42381364 12.4225072,0.842943033 L12.4225072,0.277787177 L13.4346601,0.277787177 L13.4346601,2.60529295 L13.4346601,2.60529295 Z M47.6382938,2.60529295 C47.6382938,3.42348703 48.1744673,4.09565465 49.0506261,4.09565465 C49.8888849,4.09565465 50.452926,3.45246938 50.452926,2.60529295 C50.452926,1.75811652 49.8888849,1.11493126 49.0506261,1.11493126 C48.1744673,1.11493126 47.6382938,1.78709887 47.6382938,2.60529295 L47.6382938,2.60529295 Z M51.4082289,2.60529295 L51.4082289,6.8021604 L50.3949613,6.8021604 L50.3949613,4.36764287 C50.073926,4.78677226 49.5867996,5.04984284 48.9246643,5.04984284 C47.6193438,5.04984284 46.5960438,4.02654288 46.5960438,2.60529295 C46.5960438,1.18292831 47.6193438,0.160743064 48.9246643,0.160743064 C49.5867996,0.160743064 50.073926,0.42381364 50.3949613,0.842943033 L50.3949613,0.277787177 L51.4082289,0.277787177 L51.4082289,2.60529295 Z M25.9985095,4.143587 C26.6506124,4.143587 27.0697418,3.73448996 27.1767536,3.01438999 L24.761186,3.01438999 C24.8693125,3.68655761 25.2772948,4.143587 25.9985095,4.143587 L25.9985095,4.143587 Z M26.0185742,5.04984284 C24.6541743,5.04984284 23.6999861,4.05663994 23.6999861,2.60529295 C23.6999861,1.12496361 24.693189,0.160743064 26.0865713,0.160743064 C26.7877212,0.160743064 27.4297918,0.33575188 27.9949476,0.812845975 L27.4989036,1.563043 C27.1087565,1.25204007 26.6115977,1.07591655 26.144536,1.07591655 C25.4924331,1.07591655 24.8982949,1.37800183 24.7522684,2.21626062 L28.2089712,2.21626062 C28.2190035,2.34222237 28.2290359,2.46929884 28.2290359,2.60529295 C28.2190035,4.05663994 27.32278,5.04984284 26.0185742,5.04984284 L26.0185742,5.04984284 Z M38.2402089,2.60529295 C38.2402089,3.42348703 38.7763824,4.09565465 39.6525412,4.09565465 C40.4896853,4.09565465 41.0548412,3.45246938 41.0548412,2.60529295 C41.0548412,1.75811652 40.4896853,1.11493126 39.6525412,1.11493126 C38.7763824,1.11493126 38.2402089,1.78709887 38.2402089,2.60529295 L38.2402089,2.60529295 Z M42.0090293,2.60529295 L42.0090293,4.93279872 L40.9968765,4.93279872 L40.9968765,4.36764287 C40.6747265,4.78677226 40.1887147,5.04984284 39.5265795,5.04984284 C38.2212589,5.04984284 37.197959,4.02654288 37.197959,2.60529295 C37.197959,1.18292831 38.2212589,0.160743064 39.5265795,0.160743064 C40.1887147,0.160743064 40.6747265,0.42381364 40.9968765,0.842943033 L40.9968765,0.277787177 L42.0090293,0.277787177 L42.0090293,2.60529295 Z M32.5239974,2.60529295 C32.5239974,1.19296066 33.507168,0.160743064 35.007562,0.160743064 C35.708712,0.160743064 36.1757737,0.316801881 36.6818502,0.715866568 L36.1958384,1.53406065 C35.8157238,1.26095772 35.4166591,1.11493126 34.977465,1.11493126 C34.1693032,1.12496361 33.575165,1.70906946 33.575165,2.60529295 C33.575165,3.50151644 34.1693032,4.08562229 34.977465,4.09565465 C35.4166591,4.09565465 35.8157238,3.94962818 36.1958384,3.67652525 L36.6818502,4.49471933 C36.1757737,4.89378402 35.708712,5.04984284 35.007562,5.04984284 C33.507168,5.04984284 32.5239974,4.01762524 32.5239974,2.60529295 L32.5239974,2.60529295 Z M45.5738586,5.04984284 C44.9897527,5.04984284 44.6096381,4.77673991 44.3465675,4.36764287 L44.3465675,4.93279872 L43.3433322,4.93279872 L43.3433322,0.277787177 L44.3565998,0.277787177 L44.3565998,2.88731353 C44.3565998,3.65757525 44.6876675,4.08562229 45.3498027,4.08562229 C45.5549086,4.08562229 45.7689321,4.05663994 45.9829556,3.96857818 L46.2950733,4.92276637 C46.0710174,5.01082813 45.7789645,5.04984284 45.5738586,5.04984284 L45.5738586,5.04984284 Z M18.440804,4.56271639 C17.9536775,4.88375167 17.2826246,5.04984284 16.5424599,5.04984284 C15.3631012,5.04984284 14.6039865,4.48468698 14.6039865,3.55948114 C14.6039865,2.80036647 15.1691424,2.33219002 16.2102776,2.18616356 L16.6884864,2.1181665 C17.2436099,2.04013709 17.5055658,1.89411063 17.5055658,1.63104005 C17.5055658,1.27099007 17.1354834,1.0658842 16.4443658,1.0658842 C15.7432159,1.0658842 15.2371394,1.28994007 14.8960394,1.55301065 L14.4189453,0.764913624 C14.9740688,0.355816585 15.6752188,0.160743064 16.4343335,0.160743064 C17.7786687,0.160743064 18.5578481,0.793895976 18.5578481,1.68008711 C18.5578481,2.49828119 17.9447599,2.92632823 16.9314923,3.07235469 L16.4543982,3.14146645 C16.0163188,3.19943116 15.6651865,3.28637821 15.6651865,3.59849585 C15.6651865,3.93959583 15.9962541,4.143587 16.5513776,4.143587 C17.1455158,4.143587 17.720704,3.91953112 18.0027246,3.74452231 L18.440804,4.56271639 L18.440804,4.56271639 Z M31.5006975,5.04984284 C30.9165916,5.04984284 30.5364769,4.77673991 30.2745211,4.36764287 L30.2745211,4.93279872 L29.2712858,4.93279872 L29.2712858,0.277787177 L30.2834387,0.277787177 L30.2834387,2.88731353 C30.2834387,3.65757525 30.6145064,4.08562229 31.2766416,4.08562229 C31.4817475,4.08562229 31.695771,4.05663994 31.9097945,3.96857818 L32.2219122,4.92276637 C31.9978563,5.01082813 31.7058034,5.04984284 31.5006975,5.04984284 L31.5006975,5.04984284 Z M22.862842,4.93279872 L21.2075038,4.93279872 L21.2075038,6.34513101 L20.1842039,6.34513101 L20.1842039,4.93279872 L19.2400481,4.93279872 L19.2400481,4.00759289 L20.1842039,4.00759289 L20.1842039,1.88407828 C20.1842039,0.803928328 20.6033333,0.160743064 21.8005273,0.160743064 C22.2397214,0.160743064 22.7457979,0.296737176 23.0668332,0.520793048 L22.7747802,1.38803418 C22.472695,1.21302537 22.1416273,1.12496361 21.8785568,1.12496361 C21.3724803,1.12496361 21.2075038,1.43708124 21.2075038,1.90414298 L21.2075038,4.00759289 L22.862842,4.00759289 L22.862842,4.93279872 L22.862842,4.93279872 Z M7.72848095,0.277787177 L7.72848095,3.19943116 C7.72848095,4.29964581 7.02733098,5.03981048 5.89701927,5.04984284 C5.30288106,5.05987519 4.68979285,4.87483402 4.26063111,4.2216164 C3.93959583,4.7377252 3.43351938,5.04984284 2.72233706,5.04984284 C2.22517826,5.04984284 1.73916652,4.90381637 1.35905183,4.35872522 L1.35905183,4.93279872 L0.345784232,4.93279872 L0.345784232,0.277787177 L1.36796948,0.277787177 L1.36796948,2.85833117 C1.36796948,3.6664929 1.81608122,4.09565465 2.50831354,4.09565465 C3.18048116,4.09565465 3.52046644,3.65757525 3.52046644,2.86836353 L3.52046644,0.277787177 L4.54376639,0.277787177 L4.54376639,2.85833117 C4.54376639,3.6664929 5.01082813,4.09565465 5.68299575,4.09565465 C6.37411336,4.09565465 6.70518099,3.65757525 6.70518099,2.86836353 L6.70518099,0.277787177 L7.72848095,0.277787177 L7.72848095,0.277787177 Z" id="path3808"></path>
                </g>
                <g id="g5446">
                    <g id="g3816" transform="translate(55.989529, 28.734934) scale(1, -1) translate(-55.989529, -28.734934) translate(55.011268, 28.245804)" fill="#F79410">
                        <path d="M1.74028123,0 L1.74028123,0.679970557 L1.563043,0.679970557 L1.35793713,0.212908814 L1.15394596,0.679970557 L0.975593026,0.679970557 L0.975593026,0 L1.10155479,0 L1.10155479,0.512764682 L1.29328419,0.0702264673 L1.42370477,0.0702264673 L1.61543417,0.513879388 L1.61543417,0 L1.74028123,0 Z M0.615543043,0 L0.615543043,0.56404115 L0.842943033,0.56404115 L0.842943033,0.678855851 L0.263296001,0.678855851 L0.263296001,0.56404115 L0.49069599,0.56404115 L0.49069599,0 L0.615543043,0 Z" id="path3818"></path>
                    </g>
                    <g id="g5439">
                        <polygon id="path3810" fill="#FF5F00" points="36.6033749 32.1437019 21.2627933 32.1437019 21.2627933 4.57479732 36.6033749 4.57479732"></polygon>
                        <g id="g3812" transform="translate(14.860338, 18.341844) scale(1, -1) translate(-14.860338, -18.341844) translate(0.430990, 0.488583)" fill="#EB001B">
                            <path d="M21.8049862,17.8352933 C21.8049862,23.4277724 24.4234302,28.4093928 28.5010241,31.6197456 C25.519186,33.9673161 21.7559391,35.3685013 17.6660834,35.3685013 C7.98374858,35.3685013 0.13510483,27.5187428 0.13510483,17.8352933 C0.13510483,8.15184374 7.98374858,0.30208528 17.6660834,0.30208528 C21.7559391,0.30208528 25.519186,1.70327051 28.5010241,4.05084099 C24.4234302,7.26119378 21.8049862,12.2428141 21.8049862,17.8352933" id="path3814"></path>
                        </g>
                        <g id="g3820" transform="translate(43.235130, 18.341844) scale(1, -1) translate(-43.235130, -18.341844) translate(28.805782, 0.488583)" fill="#F79E1B">
                            <path d="M28.4932212,17.8352933 C28.4932212,8.15184374 20.6445774,0.30208528 10.9622426,0.30208528 C6.87238687,0.30208528 3.10913999,1.70327051 0.126187184,4.05084099 C4.20489582,7.26119378 6.82333981,12.2428141 6.82333981,17.8352933 C6.82333981,23.4277724 4.20489582,28.4093928 0.126187184,31.6197456 C3.10913999,33.9673161 6.87238687,35.3685013 10.9622426,35.3685013 C20.6445774,35.3685013 28.4932212,27.5187428 28.4932212,17.8352933" id="path3822"></path>
                        </g>
                    </g>
                </g>
            </g>
        </g>
    </g>
</svg>