<?xml version="1.0" encoding="UTF-8" standalone="no"?>
<svg width="80px" height="45px" viewBox="0 0 80 45" version="1.1" xmlns="http://www.w3.org/2000/svg" xmlns:xlink="http://www.w3.org/1999/xlink">
    <!-- Generator: Sketch 41 (35326) - http://www.bohemiancoding.com/sketch -->
    <title>Mir</title>
    <desc>Created with Sketch.</desc>
    <defs>
        <linearGradient x1="0.00814783704%" y1="50%" x2="100%" y2="50%" id="linearGradient-1">
            <stop stop-color="#00B4E6" offset="30%"></stop>
            <stop stop-color="#088CCB" offset="100%"></stop>
        </linearGradient>
    </defs>
    <g id="Page-1" stroke="none" stroke-width="1" fill="none" fill-rule="evenodd">
        <g id="Mir">
            <g id="mir-logo" transform="translate(0.000000, 11.000000)">
                <g id="Layer_1">
                    <g id="g5" fill="#4DB45E">
                        <path d="M21.2811004,-4.23448799e-14 L21.2811004,0.010024682 C21.2713385,0.010024682 18.1963171,-4.23448799e-14 17.3763114,3.01742928 C16.6246395,5.7842415 14.5062914,13.4230492 14.4477196,13.6335675 L13.8620012,13.6335675 C13.8620012,13.6335675 11.6948433,5.82434023 10.9334094,3.00740459 C10.1134037,-0.010024682 7.02862033,-4.23448799e-14 7.02862033,-4.23448799e-14 L0,-4.23448799e-14 L0,22.9565217 L7.02862033,22.9565217 L7.02862033,9.32295424 L7.32147951,9.32295424 L7.61433869,9.32295424 L11.7143672,22.9565217 L16.5953536,22.9565217 L20.6953821,9.33297893 L21.2811004,9.33297893 L21.2811004,22.9565217 L28.3097208,22.9565217 L28.3097208,-4.23448799e-14 L21.2811004,-4.23448799e-14 Z" id="path7"></path>
                    </g>
                    <g id="g9" transform="translate(31.335932, 0.000000)" fill="#4DB45E">
                        <path d="M15.6191563,0 C15.6191563,0 13.5593801,0.190468958 12.5929448,2.40592368 L7.61433869,13.6335675 L7.02862033,13.6335675 L7.02862033,0 L0,0 L0,22.9565217 L6.63814142,22.9565217 L6.63814142,22.9565217 C6.63814142,22.9565217 8.79553738,22.7560281 9.76197268,20.5505981 L14.642959,9.32295424 L15.2286774,9.32295424 L15.2286774,22.9565217 L22.2572977,22.9565217 L22.2572977,0 L15.6191563,0 Z" id="path11"></path>
                    </g>
                    <g id="g13" transform="translate(56.717061, 10.425669)" fill="#4DB45E">
                        <path d="M0,0 L0,12.5308525 L7.02862033,12.5308525 L7.02862033,5.21283463 L14.642959,5.21283463 C17.9620297,5.21283463 20.7734779,3.03747864 21.8180089,0 L0,0 Z" id="path15"></path>
                    </g>
                    <g id="g17" transform="translate(55.643244, 0.000000)" fill="url(#linearGradient-1)">
                        <path d="M15.716776,0 L0.0878577541,0 C0.868815568,4.37076134 4.06098063,7.87940004 8.19029508,9.02221378 L8.19029508,9.02221378 C9.12744446,9.28285552 10.1134037,9.42320106 11.1286489,9.42320106 L23.1749231,9.42320106 C23.2823048,8.9019176 23.3311147,8.37060946 23.3311147,7.81925195 C23.3311147,3.49861401 19.9241862,0 15.716776,0 Z" id="path24"></path>
                    </g>
                </g>
            </g>
        </g>
    </g>
</svg>