<?xml version="1.0" encoding="UTF-8" standalone="no"?>
<svg width="80px" height="45px" viewBox="0 0 80 45" version="1.1" xmlns="http://www.w3.org/2000/svg" xmlns:xlink="http://www.w3.org/1999/xlink">
    <!-- Generator: Sketch 41 (35326) - http://www.bohemiancoding.com/sketch -->
    <title>Visa</title>
    <desc>Created with Sketch.</desc>
    <defs></defs>
    <g id="Page-1" stroke="none" stroke-width="1" fill="none" fill-rule="evenodd">
        <g id="Visa">
            <g id="visa" transform="translate(0.000000, 10.000000)">
                <g id="Welcome">
                    <g>
                        <g id="Desktop-HD-/-Desktop">
                            <g id="visa">
                                <g id="Layer_1">
                                    <polygon id="Shape" fill="#3C58BF" points="28.7451386 23.0666453 32.7271491 0.833734167 38.9490405 0.833734167 35.0914678 23.0666453"></polygon>
                                    <polygon id="Shape" fill="#293688" points="28.7451386 23.0666453 33.8470895 0.833734167 38.9490405 0.833734167 35.0914678 23.0666453"></polygon>
                                    <path d="M57.6147149,1.08076651 C56.3703366,0.586701822 54.3793313,0.0926371294 51.8905747,0.0926371294 C45.6686833,0.0926371294 41.1889214,3.18054145 41.1889214,7.62712368 C41.1889214,10.9620604 44.2998672,12.6912868 46.7886238,13.8029323 C49.2773803,14.9145779 50.0240073,15.6556749 50.0240073,16.6438043 C50.0240073,18.1259984 48.033002,18.8670954 46.2908725,18.8670954 C43.8021158,18.8670954 42.4332997,18.4965469 40.3178566,17.6319337 L39.4467919,17.2613852 L38.575727,22.3255482 C40.068981,22.9431291 42.8066133,23.56071 45.6686833,23.56071 C52.2638883,23.56071 56.6192122,20.4728057 56.6192122,15.7791911 C56.6192122,13.1853514 55.0015205,11.2090927 51.2683856,9.60338244 C49.0285047,8.49173689 47.6596886,7.87415602 47.6596886,6.76251046 C47.6596886,5.77438108 48.7796291,4.7862517 51.2683856,4.7862517 C53.3838287,4.7862517 54.8770827,5.15680022 55.9970231,5.65086491 L56.6192122,5.89789726 L57.6147149,1.08076651 L57.6147149,1.08076651 L57.6147149,1.08076651 L57.6147149,1.08076651 Z" id="Shape" fill="#3C58BF"></path>
                                    <path d="M57.6147149,1.08076651 C56.3703366,0.586701822 54.3793313,0.0926371294 51.8905747,0.0926371294 C45.6686833,0.0926371294 42.3088619,3.18054145 42.3088619,7.62712368 C42.3088619,10.9620604 44.2998672,12.6912868 46.7886238,13.8029323 C49.2773803,14.9145779 50.0240073,15.6556749 50.0240073,16.6438043 C50.0240073,18.1259984 48.033002,18.8670954 46.2908725,18.8670954 C43.8021158,18.8670954 42.4332997,18.4965469 40.3178566,17.6319337 L39.4467919,17.2613852 L38.575727,22.3255482 C40.068981,22.9431291 42.8066133,23.56071 45.6686833,23.56071 C52.2638883,23.56071 56.6192122,20.4728057 56.6192122,15.7791911 C56.6192122,13.1853514 55.0015205,11.2090927 51.2683856,9.60338244 C49.0285047,8.49173689 47.6596886,7.87415602 47.6596886,6.76251046 C47.6596886,5.77438108 48.7796291,4.7862517 51.2683856,4.7862517 C53.3838287,4.7862517 54.8770827,5.15680022 55.9970231,5.65086491 L56.6192122,5.89789726 L57.6147149,1.08076651 L57.6147149,1.08076651 L57.6147149,1.08076651 L57.6147149,1.08076651 Z" id="Shape" fill="#293688"></path>
                                    <path d="M68.3163682,0.833734167 C66.8231142,0.833734167 65.7031738,0.957250343 65.0809847,2.43944442 L55.7481475,23.0666453 L62.4677902,23.0666453 L63.7121685,19.3611601 L71.6761896,19.3611601 L72.4228166,23.0666453 L78.3958324,23.0666453 L73.1694436,0.833734167 L68.3163682,0.833734167 L68.3163682,0.833734167 L68.3163682,0.833734167 Z M65.4542981,15.6556749 C65.8276116,14.5440294 67.9430547,9.10931775 67.9430547,9.10931775 C67.9430547,9.10931775 68.4408061,7.75063985 68.8141195,6.88602664 L69.187433,8.98580158 C69.187433,8.98580158 70.4318113,14.5440294 70.6806869,15.7791911 L65.4542981,15.7791911 L65.4542981,15.6556749 L65.4542981,15.6556749 L65.4542981,15.6556749 Z" id="Shape" fill="#3C58BF"></path>
                                    <path d="M69.8096222,0.833734167 C68.3163682,0.833734167 67.1964277,0.957250343 66.5742386,2.43944442 L55.7481475,23.0666453 L62.4677902,23.0666453 L63.7121685,19.3611601 L71.6761896,19.3611601 L72.4228166,23.0666453 L78.3958324,23.0666453 L73.1694436,0.833734167 L69.8096222,0.833734167 L69.8096222,0.833734167 L69.8096222,0.833734167 Z M65.4542981,15.6556749 C65.9520494,14.4205132 67.9430547,9.10931775 67.9430547,9.10931775 C67.9430547,9.10931775 68.4408061,7.75063985 68.8141195,6.88602664 L69.187433,8.98580158 C69.187433,8.98580158 70.4318113,14.5440294 70.6806869,15.7791911 L65.4542981,15.7791911 L65.4542981,15.6556749 L65.4542981,15.6556749 L65.4542981,15.6556749 Z" id="Shape" fill="#293688"></path>
                                    <path d="M17.2968583,16.3967719 L16.6746691,13.1853514 C15.5547286,9.4798663 11.9460316,5.40383257 7.96402107,3.4275738 L13.5637234,23.1901615 L20.2833661,23.1901615 L30.3628303,0.957250343 L23.6431875,0.957250343 L17.2968583,16.3967719 L17.2968583,16.3967719 L17.2968583,16.3967719 Z" id="Shape" fill="#3C58BF"></path>
                                    <path d="M17.2968583,16.3967719 L16.6746691,13.1853514 C15.5547286,9.4798663 11.9460316,5.40383257 7.96402107,3.4275738 L13.5637234,23.1901615 L20.2833661,23.1901615 L30.3628303,0.957250343 L24.8875658,0.957250343 L17.2968583,16.3967719 L17.2968583,16.3967719 L17.2968583,16.3967719 Z" id="Shape" fill="#293688"></path>
                                    <path d="M0,0.833734167 L1.11994047,1.08076651 C9.08396157,2.93350911 14.559226,7.62712368 16.6746691,13.1853514 L14.4347881,2.68647676 C14.0614747,1.20428269 12.9415342,0.833734167 11.5727181,0.833734167 L0,0.833734167 L0,0.833734167 L0,0.833734167 Z" id="Shape" fill="#FFBC00"></path>
                                    <path d="M0,0.833734167 L0,0.833734167 C7.96402107,2.68647676 14.559226,7.50360751 16.6746691,13.0618353 L14.559226,4.29218701 C14.1859125,2.80999293 12.9415342,1.94537973 11.5727181,1.94537973 L0,0.833734167 L0,0.833734167 L0,0.833734167 Z" id="Shape" fill="#F7981D"></path>
                                    <path d="M0,0.833734167 L0,0.833734167 C7.96402107,2.68647676 14.559226,7.50360751 16.6746691,13.0618353 L15.1814152,8.24470455 C14.8081017,6.76251046 14.3103503,5.28031639 12.5682208,4.66273553 L0,0.833734167 L0,0.833734167 L0,0.833734167 Z" id="Shape" fill="#ED7C00"></path>
                                    <g id="Group" transform="translate(8.088459, 3.242300)" fill="#051244">
                                        <path d="M15.4302908,12.4133754 L11.1994047,8.2138255 L9.20839938,12.9074401 L8.71064804,9.81953571 C7.59070758,6.11405056 3.98201053,2.03801685 0,0.0617580864 L5.59970231,19.8243458 L12.3193451,19.8243458 L15.4302908,12.4133754 L15.4302908,12.4133754 L15.4302908,12.4133754 Z" id="Shape"></path>
                                        <polygon id="Shape" points="27.0030089 19.8243458 21.6521823 14.3896341 20.6566797 19.8243458"></polygon>
                                        <path d="M41.3133592,12.166343 L41.3133592,12.166343 C41.8111106,12.6604077 42.0599863,13.0309562 41.9355484,13.5250209 C41.9355484,15.007215 39.9445431,15.748312 38.2024136,15.748312 C35.713657,15.748312 34.3448408,15.3777635 32.2293978,14.5131503 L31.358333,14.1426018 L30.4872681,19.2067649 C31.9805221,19.8243458 34.7181544,20.4419267 37.5802244,20.4419267 C41.562235,20.4419267 44.7976185,19.330281 46.6641859,17.3540223 L41.3133592,12.166343 L41.3133592,12.166343 L41.3133592,12.166343 Z" id="Shape"></path>
                                        <path d="M48.5307534,19.8243458 L54.3793313,19.8243458 L55.6237097,16.1188605 L63.5877307,16.1188605 L64.3343577,19.8243458 L70.3073735,19.8243458 L68.1919303,10.8076651 L60.7256606,3.6437271 L61.0989741,5.61998587 C61.0989741,5.61998587 62.3433524,11.1782136 62.5922281,12.4133754 L57.3658392,12.4133754 C57.8635905,11.1782136 59.8545958,5.86701822 59.8545958,5.86701822 C59.8545958,5.86701822 60.3523472,4.50834031 60.7256606,3.6437271" id="Shape"></path>
                                    </g>
                                </g>
                            </g>
                        </g>
                    </g>
                </g>
            </g>
        </g>
    </g>
</svg>