<?xml version="1.0" encoding="UTF-8" standalone="no"?>
<svg width="80px" height="45px" viewBox="0 0 80 45" version="1.1" xmlns="http://www.w3.org/2000/svg" xmlns:xlink="http://www.w3.org/1999/xlink">
    <!-- Generator: Sketch 41 (35326) - http://www.bohemiancoding.com/sketch -->
    <title>bankcard</title>
    <desc>Created with Sketch.</desc>
    <defs>
        <linearGradient x1="0.00814783704%" y1="50%" x2="100%" y2="50%" id="linearGradient-1">
            <stop stop-color="#00B4E6" offset="30%"></stop>
            <stop stop-color="#088CCB" offset="100%"></stop>
        </linearGradient>
    </defs>
    <g id="Page-1" stroke="none" stroke-width="1" fill="none" fill-rule="evenodd">
        <g id="bankcard">
            <g id="visa" transform="translate(4.000000, 26.000000)">
                <g id="Welcome">
                    <g>
                        <g id="Desktop-HD-/-Desktop">
                            <g id="visa">
                                <g id="Layer_1">
                                    <polygon id="Shape" fill="#3C58BF" points="12.6198169 9.75896531 14.3680167 0.352733686 17.0995788 0.352733686 15.4060103 9.75896531"></polygon>
                                    <polygon id="Shape" fill="#293688" points="12.6198169 9.75896531 14.8596978 0.352733686 17.0995788 0.352733686 15.4060103 9.75896531"></polygon>
                                    <path d="M25.2942651,0.45724737 C24.7479527,0.248220001 23.8738528,0.0391926317 22.7812279,0.0391926317 C20.0496658,0.0391926317 18.0829411,1.34561369 18.0829411,3.22686002 C18.0829411,4.63779477 19.4487222,5.36939056 20.541347,5.83970214 C21.6339718,6.31001371 21.9617593,6.62355476 21.9617593,7.04160951 C21.9617593,7.66869161 21.0876594,7.98223266 20.3228221,7.98223266 C19.2301972,7.98223266 18.6292535,7.82546214 17.7005224,7.45966426 L17.3181037,7.30289373 L16.935685,9.44542426 C17.59126,9.70670848 18.7931473,9.9679927 20.0496658,9.9679927 C22.9451217,9.9679927 24.8572151,8.66157163 24.8572151,6.67581163 C24.8572151,5.57841792 24.147009,4.74230846 22.5080717,4.06296949 C21.5247094,3.59265792 20.9237657,3.3313737 20.9237657,2.86106212 C20.9237657,2.44300738 21.4154469,2.02495264 22.5080717,2.02495264 C23.4368028,2.02495264 24.0923778,2.18172317 24.5840589,2.39075054 L24.8572151,2.49526422 L25.2942651,0.45724737 L25.2942651,0.45724737 L25.2942651,0.45724737 L25.2942651,0.45724737 Z" id="Shape" fill="#3C58BF"></path>
                                    <path d="M25.2942651,0.45724737 C24.7479527,0.248220001 23.8738528,0.0391926317 22.7812279,0.0391926317 C20.0496658,0.0391926317 18.5746223,1.34561369 18.5746223,3.22686002 C18.5746223,4.63779477 19.4487222,5.36939056 20.541347,5.83970214 C21.6339718,6.31001371 21.9617593,6.62355476 21.9617593,7.04160951 C21.9617593,7.66869161 21.0876594,7.98223266 20.3228221,7.98223266 C19.2301972,7.98223266 18.6292535,7.82546214 17.7005224,7.45966426 L17.3181037,7.30289373 L16.935685,9.44542426 C17.59126,9.70670848 18.7931473,9.9679927 20.0496658,9.9679927 C22.9451217,9.9679927 24.8572151,8.66157163 24.8572151,6.67581163 C24.8572151,5.57841792 24.147009,4.74230846 22.5080717,4.06296949 C21.5247094,3.59265792 20.9237657,3.3313737 20.9237657,2.86106212 C20.9237657,2.44300738 21.4154469,2.02495264 22.5080717,2.02495264 C23.4368028,2.02495264 24.0923778,2.18172317 24.5840589,2.39075054 L24.8572151,2.49526422 L25.2942651,0.45724737 L25.2942651,0.45724737 L25.2942651,0.45724737 L25.2942651,0.45724737 Z" id="Shape" fill="#293688"></path>
                                    <path d="M29.9925519,0.352733686 C29.336977,0.352733686 28.8452958,0.40499053 28.5721396,1.03207264 L24.4747964,9.75896531 L27.4248835,9.75896531 L27.9711959,8.19126005 L31.4675954,8.19126005 L31.7953829,9.75896531 L34.4176825,9.75896531 L32.1231703,0.352733686 L29.9925519,0.352733686 L29.9925519,0.352733686 L29.9925519,0.352733686 Z M28.7360333,6.62355476 C28.8999271,6.15324319 29.8286582,3.85394213 29.8286582,3.85394213 C29.8286582,3.85394213 30.0471831,3.27911686 30.2110768,2.91331896 L30.3749706,3.80168528 C30.3749706,3.80168528 30.921283,6.15324319 31.0305455,6.67581163 L28.7360333,6.67581163 L28.7360333,6.62355476 L28.7360333,6.62355476 L28.7360333,6.62355476 Z" id="Shape" fill="#3C58BF"></path>
                                    <path d="M30.6481268,0.352733686 C29.9925519,0.352733686 29.5008707,0.40499053 29.2277145,1.03207264 L24.4747964,9.75896531 L27.4248835,9.75896531 L27.9711959,8.19126005 L31.4675954,8.19126005 L31.7953829,9.75896531 L34.4176825,9.75896531 L32.1231703,0.352733686 L30.6481268,0.352733686 L30.6481268,0.352733686 L30.6481268,0.352733686 Z M28.7360333,6.62355476 C28.9545583,6.10098636 29.8286582,3.85394213 29.8286582,3.85394213 C29.8286582,3.85394213 30.0471831,3.27911686 30.2110768,2.91331896 L30.3749706,3.80168528 C30.3749706,3.80168528 30.921283,6.15324319 31.0305455,6.67581163 L28.7360333,6.67581163 L28.7360333,6.62355476 L28.7360333,6.62355476 L28.7360333,6.62355476 Z" id="Shape" fill="#293688"></path>
                                    <path d="M7.59374266,6.93709581 L7.32058644,5.57841792 C6.82890525,4.01071267 5.24459925,2.28623685 3.49639949,1.45012738 L5.95480538,9.81122217 L8.90489245,9.81122217 L13.3300231,0.40499053 L10.379936,0.40499053 L7.59374266,6.93709581 L7.59374266,6.93709581 L7.59374266,6.93709581 Z" id="Shape" fill="#3C58BF"></path>
                                    <path d="M7.59374266,6.93709581 L7.32058644,5.57841792 C6.82890525,4.01071267 5.24459925,2.28623685 3.49639949,1.45012738 L5.95480538,9.81122217 L8.90489245,9.81122217 L13.3300231,0.40499053 L10.9262484,0.40499053 L7.59374266,6.93709581 L7.59374266,6.93709581 L7.59374266,6.93709581 Z" id="Shape" fill="#293688"></path>
                                    <path d="M0,0.352733686 L0.49168118,0.45724737 C3.98808069,1.24110001 6.39185534,3.22686002 7.32058644,5.57841792 L6.33722406,1.13658632 C6.17333036,0.509504214 5.68164917,0.352733686 5.0807055,0.352733686 L0,0.352733686 L0,0.352733686 L0,0.352733686 Z" id="Shape" fill="#FFBC00"></path>
                                    <path d="M0,0.352733686 L0,0.352733686 C3.49639949,1.13658632 6.39185534,3.17460318 7.32058644,5.52616109 L6.39185534,1.81592527 C6.22796159,1.18884316 5.68164917,0.823045269 5.0807055,0.823045269 L0,0.352733686 L0,0.352733686 L0,0.352733686 Z" id="Shape" fill="#F7981D"></path>
                                    <path d="M0,0.352733686 L0,0.352733686 C3.49639949,1.13658632 6.39185534,3.17460318 7.32058644,5.52616109 L6.66501155,3.48814423 C6.5011178,2.86106212 6.28259283,2.23398001 5.51775546,1.9726958 L0,0.352733686 L0,0.352733686 L0,0.352733686 Z" id="Shape" fill="#ED7C00"></path>
                                    <g id="Group" transform="translate(3.551031, 1.371742)" fill="#051244">
                                        <path d="M6.77427402,5.25181267 L4.9168118,3.47508002 L4.04271192,5.46084002 L3.82418695,4.15441895 C3.33250577,2.5867137 1.74819975,0.8622379 0,0.0261284212 L2.45840589,8.38722321 L5.40849295,8.38722321 L6.77427402,5.25181267 L6.77427402,5.25181267 L6.77427402,5.25181267 Z" id="Shape"></path>
                                        <polygon id="Shape" points="11.8549795 8.38722321 9.50583611 6.08792212 9.06878619 8.38722321"></polygon>
                                        <path d="M18.1375723,5.14729897 L18.1375723,5.14729897 C18.3560973,5.35632633 18.4653598,5.51309685 18.4107286,5.72212424 C18.4107286,6.34920635 17.5366287,6.6627474 16.7717913,6.6627474 C15.6791665,6.6627474 15.0782228,6.50597687 14.1494917,6.14017899 L13.767073,5.98340847 L13.3846543,8.12593899 C14.0402292,8.38722321 15.2421166,8.64850743 16.4986351,8.64850743 C18.2468349,8.64850743 19.6672472,8.17819582 20.4867158,7.34208636 L18.1375723,5.14729897 L18.1375723,5.14729897 L18.1375723,5.14729897 Z" id="Shape"></path>
                                        <path d="M21.3061844,8.38722321 L23.8738528,8.38722321 L24.4201652,6.81951792 L27.9165647,6.81951792 L28.2443522,8.38722321 L30.8666518,8.38722321 L29.9379206,4.5724737 L26.6600461,1.54157685 L26.8239399,2.37768633 C26.8239399,2.37768633 27.3702523,4.72924423 27.4795148,5.25181267 L25.1850026,5.25181267 C25.4035276,4.72924423 26.2776274,2.48220001 26.2776274,2.48220001 C26.2776274,2.48220001 26.4961524,1.90737475 26.6600461,1.54157685" id="Shape"></path>
                                    </g>
                                </g>
                            </g>
                        </g>
                    </g>
                </g>
            </g>
            <g id="g5473-copy" transform="translate(43.000000, 21.000000)">
                <g id="g5446">
                    <g id="g3816" transform="translate(29.410136, 15.371965) scale(1, -1) translate(-29.410136, -15.371965) translate(28.410136, 14.871965)" fill="#F79410">
                        <path d="M0.898754537,-6.45039577e-14 L0.898754537,0.617647059 L0.80722125,0.617647059 L0.701295937,0.193394407 L0.595946305,0.617647059 L0.503837337,0.617647059 L0.503837337,-6.45039577e-14 L0.568889296,-6.45039577e-14 L0.568889296,0.465766635 L0.667906436,0.0637897782 L0.735261119,0.0637897782 L0.83427826,0.466779171 L0.83427826,-6.45039577e-14 L0.898754537,-6.45039577e-14 Z M0.317892358,-6.45039577e-14 L0.317892358,0.512343298 L0.435331292,0.512343298 L0.435331292,0.616634523 L0.135977147,0.616634523 L0.135977147,0.512343298 L0.253416081,0.512343298 L0.253416081,-6.45039577e-14 L0.317892358,-6.45039577e-14 Z" id="path3818"></path>
                    </g>
                    <g id="g5439">
                        <polygon id="path3810" fill="#FF5F00" points="18.9035248 17.4341509 10.9810022 17.4341509 10.9810022 2.68309195 18.9035248 2.68309195"></polygon>
                        <g id="g3812" transform="translate(7.722581, 10.101900) scale(1, -1) translate(-7.722581, -10.101900) translate(0.222581, 0.601900)" fill="#EB001B">
                            <path d="M11.2610134,9.54297846 C11.2610134,12.5352986 12.6132882,15.2007718 14.7191295,16.9185079 C13.1791827,18.1746025 11.2356835,18.9243227 9.12350969,18.9243227 C4.1231441,18.9243227 0.0697738258,14.7242193 0.0697738258,9.54297846 C0.0697738258,4.36173759 4.1231441,0.161634198 9.12350969,0.161634198 C11.2356835,0.161634198 13.1791827,0.911354443 14.7191295,2.16744898 C12.6132882,3.88518511 11.2610134,6.55065828 11.2610134,9.54297846" id="path3814"></path>
                        </g>
                        <g id="g3820" transform="translate(22.376519, 10.101900) scale(1, -1) translate(-22.376519, -10.101900) translate(14.876519, 0.601900)" fill="#F79E1B">
                            <path d="M14.7150997,9.54297846 C14.7150997,4.36173759 10.6617295,0.161634198 5.66136386,0.161634198 C3.54919009,0.161634198 1.60569087,0.911354443 0.0651683774,2.16744898 C2.17158534,3.88518511 3.52386012,6.55065828 3.52386012,9.54297846 C3.52386012,12.5352986 2.17158534,15.2007718 0.0651683774,16.9185079 C1.60569087,18.1746025 3.54919009,18.9243227 5.66136386,18.9243227 C10.6617295,18.9243227 14.7150997,14.7242193 14.7150997,9.54297846" id="path3822"></path>
                        </g>
                    </g>
                </g>
            </g>
            <g id="mir-logo-copy" transform="translate(22.000000, 6.000000)">
                <g id="Layer_1">
                    <g id="g5" fill="#4DB45E">
                        <path d="M10.1085227,2.40386577e-14 L10.1085227,0.00459464591 C10.1038858,0.00459464591 8.64325061,2.40386577e-14 8.2537479,1.38298842 C7.89670375,2.65111069 6.89048842,6.15223087 6.86266679,6.24871844 L6.58445057,6.24871844 C6.58445057,6.24871844 5.55505055,2.66948927 5.19336947,1.37839377 C4.80386676,-0.00459464591 3.33859466,2.40386577e-14 3.33859466,2.40386577e-14 L0,2.40386577e-14 L0,10.5217391 L3.33859466,10.5217391 L3.33859466,4.27302069 L3.47770277,4.27302069 L3.61681088,4.27302069 L5.56432443,10.5217391 L7.88279294,10.5217391 L9.83030649,4.27761534 L10.1085227,4.27761534 L10.1085227,10.5217391 L13.4471174,10.5217391 L13.4471174,2.40386577e-14 L10.1085227,2.40386577e-14 Z" id="path7"></path>
                    </g>
                    <g id="g9" transform="translate(14.884568, 0.000000)" fill="#4DB45E">
                        <path d="M7.41909924,0 C7.41909924,0 6.44070552,0.0872982723 5.98164876,1.10271502 L3.61681088,6.24871844 L3.33859466,6.24871844 L3.33859466,0 L0,0 L0,10.5217391 L3.15311718,10.5217391 L3.15311718,10.5217391 C3.15311718,10.5217391 4.17788026,10.4298462 4.63693702,9.41902411 L6.95540553,4.27302069 L7.23362176,4.27302069 L7.23362176,10.5217391 L10.5722164,10.5217391 L10.5722164,0 L7.41909924,0 Z" id="path11"></path>
                    </g>
                    <g id="g13" transform="translate(26.940604, 4.778432)" fill="#4DB45E">
                        <path d="M0,0 L0,5.74330739 L3.33859466,5.74330739 L3.33859466,2.38921587 L6.95540553,2.38921587 C8.53196412,2.38921587 9.86740198,1.39217771 10.3635542,0 L0,0 Z" id="path15"></path>
                    </g>
                    <g id="g17" transform="translate(26.430541, 0.000000)" fill="url(#linearGradient-1)">
                        <path d="M7.46546861,0 L0.0417324332,0 C0.412687395,2.00326562 1.9289658,3.61139168 3.89039016,4.13518132 L3.89039016,4.13518132 C4.33553612,4.25464211 4.80386676,4.31896715 5.28610821,4.31896715 L11.0080885,4.31896715 C11.0590948,4.08004557 11.0822795,3.83652933 11.0822795,3.58382381 C11.0822795,1.60353142 9.46398846,0 7.46546861,0 Z" id="path24"></path>
                    </g>
                </g>
            </g>
        </g>
    </g>
</svg>