<?xml version="1.0" encoding="UTF-8"?>
<svg width="26px" height="16px" viewBox="0 0 26 16" version="1.1" xmlns="http://www.w3.org/2000/svg" xmlns:xlink="http://www.w3.org/1999/xlink">
    <g id="Artboard" stroke="none" stroke-width="1" fill="none" fill-rule="evenodd" transform="translate(-304.000000, -92.000000)">
        <path d="M319.414214,100 L321.535534,97.8786797 C321.926058,97.4881554 321.926058,96.8549904 321.535534,96.4644661 C321.14501,96.0739418 320.511845,96.0739418 320.12132,96.4644661 L318,98.5857864 L315.87868,96.4644661 C315.488155,96.0739418 314.85499,96.0739418 314.464466,96.4644661 C314.073942,96.8549904 314.073942,97.4881554 314.464466,97.8786797 L316.585786,100 L314.464466,102.12132 C314.073942,102.511845 314.073942,103.14501 314.464466,103.535534 C314.85499,103.926058 315.488155,103.926058 315.87868,103.535534 L318,101.414214 L320.12132,103.535534 C320.511845,103.926058 321.14501,103.926058 321.535534,103.535534 C321.926058,103.14501 321.926058,102.511845 321.535534,102.12132 L319.414214,100 Z M312,92 L323,92 C324.104569,92 325,92.8954305 325,94 L325,106 C325,107.104569 324.104569,108 323,108 L312,108 L304,100 L312,92 Z" id="clear_input" fill="#545454"></path>
    </g>
</svg>