<svg id="Layer_1" data-name="Layer 1" xmlns="http://www.w3.org/2000/svg" viewBox="0 0 647.11 412.76"><defs><style>.cls-1{fill:#f3f3f3;}.cls-1,.cls-2,.cls-3{stroke:#d2d8db;stroke-width:5px;}.cls-1,.cls-2,.cls-3,.cls-6{stroke-miterlimit:10;}.cls-2{fill:#e2e2e2;}.cls-3{fill:#fff;}.cls-4{fill:#d2d8db;}.cls-5{fill:#58595b;}.cls-6{fill:none;stroke:#ed2224;stroke-width:7px;}</style></defs><title>cvc-tooltip</title><rect class="cls-1" x="2.63" y="2.5" width="641.84" height="407.76" rx="34.62" ry="34.62"/><rect class="cls-2" x="2.5" y="86.99" width="642.11" height="69.72"/><rect class="cls-3" x="24.28" y="183.49" width="598.56" height="69.72"/><path class="cls-4" d="M157.28,310.84h-125a3.5,3.5,0,1,1,0-7h125A3.5,3.5,0,0,1,157.28,310.84Z" transform="translate(-2.39 -3.29)"/><path class="cls-4" d="M446.42,310.84H205.47a3.5,3.5,0,0,1,0-7H446.42A3.5,3.5,0,0,1,446.42,310.84Z" transform="translate(-2.39 -3.29)"/><path class="cls-4" d="M619.61,310.84h-125a3.5,3.5,0,0,1,0-7h125A3.5,3.5,0,0,1,619.61,310.84Z" transform="translate(-2.39 -3.29)"/><path class="cls-4" d="M298.78,339.68H32.28a3.5,3.5,0,1,1,0-7h266.5A3.5,3.5,0,0,1,298.78,339.68Z" transform="translate(-2.39 -3.29)"/><path class="cls-4" d="M619.61,339.68H353.11a3.5,3.5,0,0,1,0-7h266.5A3.5,3.5,0,0,1,619.61,339.68Z" transform="translate(-2.39 -3.29)"/><path class="cls-4" d="M298.78,367.5H32.28a3.5,3.5,0,1,1,0-7h266.5A3.5,3.5,0,1,1,298.78,367.5Z" transform="translate(-2.39 -3.29)"/><path class="cls-4" d="M619.61,367.5H353.11a3.5,3.5,0,1,1,0-7h266.5A3.5,3.5,0,0,1,619.61,367.5Z" transform="translate(-2.39 -3.29)"/><path class="cls-5" d="M523.51,235.29h7.14V210.61l0.51-3-2,2.4-5.61,4-1.94-2.6,11.22-8.67h1.84v32.54h7v3.77H523.51v-3.77Z" transform="translate(-2.39 -3.29)"/><path class="cls-5" d="M568.54,211.48a16.65,16.65,0,0,1-1,5.53,35.83,35.83,0,0,1-2.6,5.69,56.42,56.42,0,0,1-3.6,5.58q-2,2.73-4,5.18l-2.5,2.19v0.2l3.26-.56h11.12v3.77H549v-1.48q1.12-1.17,2.7-2.91t3.29-3.85q1.71-2.12,3.37-4.49a54,54,0,0,0,3-4.82,30.25,30.25,0,0,0,2.17-4.85,14.12,14.12,0,0,0,.82-4.54,6.15,6.15,0,0,0-1.43-4.16,5.41,5.41,0,0,0-4.33-1.66,9.47,9.47,0,0,0-3.77.79,14.71,14.71,0,0,0-3.16,1.81L549.93,206a13.2,13.2,0,0,1,4.23-2.4,15.62,15.62,0,0,1,5.25-.87,10.91,10.91,0,0,1,3.88.64,8,8,0,0,1,2.86,1.81,7.82,7.82,0,0,1,1.79,2.78A9.73,9.73,0,0,1,568.54,211.48Z" transform="translate(-2.39 -3.29)"/><path class="cls-5" d="M585.52,236.11a9.81,9.81,0,0,0,3.21-.51,7.09,7.09,0,0,0,2.55-1.5,7.17,7.17,0,0,0,1.68-2.37,7.32,7.32,0,0,0,.61-3,6.46,6.46,0,0,0-2.12-5.3,9,9,0,0,0-5.84-1.73h-3.77V220.2l7.34-11.32,2.35-2.24-3.32.51h-10.1v-3.77h18.21v1.48L588.23,217l-1.79,1.48v0.1l1.73-.36A10.9,10.9,0,0,1,592,219a8.63,8.63,0,0,1,3,2,9.24,9.24,0,0,1,2,3.11,11.13,11.13,0,0,1,.71,4.11,11.77,11.77,0,0,1-1,4.9,10.42,10.42,0,0,1-2.63,3.59,11.44,11.44,0,0,1-3.9,2.22,14.61,14.61,0,0,1-4.74.76,21.8,21.8,0,0,1-4.13-.36,17.31,17.31,0,0,1-3.21-.92l1.07-3.62a14,14,0,0,0,2.78.94A15.55,15.55,0,0,0,585.52,236.11Z" transform="translate(-2.39 -3.29)"/><rect class="cls-6" x="509.28" y="183.49" width="98.67" height="69.72"/><path class="cls-5" d="M421.21,220.91l-10.86-17.54h5.1l7.24,12.09,1.27,2.91,1.22-2.91,7.65-12.09h4.69l-11.22,17.19L438,239.07h-4.95L425,226.27l-1.38-3.06-1.33,3.06-8.26,12.8h-4.74Z" transform="translate(-2.39 -3.29)"/><path class="cls-5" d="M451.15,220.91l-10.86-17.54h5.1l7.24,12.09,1.27,2.91,1.22-2.91,7.65-12.09h4.69l-11.22,17.19L468,239.07H463L455,226.27l-1.38-3.06-1.33,3.06L444,239.07h-4.74Z" transform="translate(-2.39 -3.29)"/><path class="cls-5" d="M481.08,220.91l-10.86-17.54h5.1l7.24,12.09,1.27,2.91,1.22-2.91,7.65-12.09h4.69l-11.22,17.19,11.73,18.51H493l-8.06-12.8-1.38-3.06-1.33,3.06-8.26,12.8H469.2Z" transform="translate(-2.39 -3.29)"/></svg>