<?xml version="1.0" encoding="UTF-8"?>
<svg width="342px" height="204px" viewBox="0 0 342 204" version="1.1" xmlns="http://www.w3.org/2000/svg" xmlns:xlink="http://www.w3.org/1999/xlink">
    <g id="-Admin" stroke="none" stroke-width="1" fill="none" fill-rule="evenodd">
        <g id="lang-en" fill-rule="nonzero">
            <rect id="Rectangle-path" fill="#FFFFFF" x="0.063" y="0" width="341.467" height="202.167"></rect>
            <g id="Group">
                <polygon id="Shape" fill="#13135F" points="0.063 20 0.063 76.5 96.063 76.5"></polygon>
                <polygon id="Shape" fill="#FF0000" points="109.911 76.5 129.563 76.5 0.063 0 0.063 12"></polygon>
                <polygon id="Shape" fill="#12145B" points="37.916 0 147.563 67.486 147.563 0"></polygon>
            </g>
            <polygon id="Shape" fill="#13135F" points="341.563 182 341.563 126 246.563 126"></polygon>
            <polygon id="Shape" fill="#FF0000" points="232.715 126 213.063 126 341.563 202.125 341.563 190"></polygon>
            <polygon id="Shape" fill="#12145B" points="304.681 203 195.035 135.514 195.035 203"></polygon>
            <polygon id="Shape" fill="#13135F" points="341.563 20.513 341.563 76.5 246.563 76.432"></polygon>
            <polygon id="Shape" fill="#FF0000" points="195.063 76.5 217.361 76.5 341.563 0 319.009 0"></polygon>
            <polygon id="Shape" fill="#12145B" points="303.75 0 195.063 66.986 195.063 0"></polygon>
            <polygon id="Shape" fill="#13135F" points="0.071 182.481 0.071 125.981 96.071 125.981"></polygon>
            <polygon id="Shape" fill="#FF0000" points="147.517 125.969 125.218 125.969 0 203.057 22.572 203.057"></polygon>
            <polygon id="Shape" fill="#12145B" points="37.87 202.969 147.517 135.483 147.517 202.969"></polygon>
            <rect id="Rectangle-path" fill="#FF0000" x="156.717" y="0" width="28.874" height="203"></rect>
            <rect id="Rectangle-path" fill="#FF0000" x="0.063" y="85.252" width="341.527" height="32.672"></rect>
        </g>
    </g>
</svg>