<?xml version="1.0" encoding="utf-8"?>
<!-- Generator: Adobe Illustrator 21.0.2, SVG Export Plug-In . SVG Version: 6.00 Build 0)  -->
<svg version="1.1" id="Layer_1" xmlns="http://www.w3.org/2000/svg" xmlns:xlink="http://www.w3.org/1999/xlink" x="0px" y="0px"
	 viewBox="0 0 347.3 81.7" style="enable-background:new 0 0 347.3 81.7;" xml:space="preserve">
<style type="text/css">
	.st0{enable-background:new    ;}
	.st1{fill:#026E8C;}
</style>
<title>paymaster_logo</title>
<g class="st0">
	<path class="st1" d="M136.8,25.3c0,1.9-0.3,3.6-0.9,5.1s-1.5,2.7-2.6,3.7c-1.1,1-2.5,1.8-4.2,2.3c-1.7,0.5-3.6,0.8-5.8,0.8h-2.8V48
		c0,0.2-0.1,0.3-0.2,0.5c-0.1,0.1-0.3,0.3-0.6,0.3c-0.3,0.1-0.6,0.2-1.1,0.2c-0.4,0.1-1,0.1-1.7,0.1c-0.7,0-1.2,0-1.7-0.1
		c-0.4-0.1-0.8-0.1-1.1-0.2c-0.3-0.1-0.4-0.2-0.6-0.3c-0.1-0.1-0.2-0.3-0.2-0.5V17.4c0-0.8,0.2-1.4,0.6-1.9c0.4-0.4,1-0.6,1.7-0.6h8
		c0.8,0,1.6,0,2.3,0.1c0.7,0.1,1.6,0.2,2.6,0.4s2,0.6,3.1,1.1s1.9,1.2,2.7,2.1s1.3,1.8,1.7,2.9C136.6,22.6,136.8,23.9,136.8,25.3z
		 M129.6,25.8c0-1.2-0.2-2.2-0.6-2.9c-0.4-0.8-0.9-1.3-1.6-1.7s-1.3-0.6-1.9-0.7c-0.7-0.1-1.4-0.1-2.1-0.1h-2.9v11.5h3.1
		c1.1,0,2-0.1,2.8-0.4s1.4-0.7,1.8-1.2c0.5-0.5,0.8-1.2,1.1-1.9C129.5,27.5,129.6,26.7,129.6,25.8z"/>
</g>
<g class="st0">
	<path class="st1" d="M160.7,48.1c0,0.2-0.1,0.4-0.3,0.6c-0.2,0.1-0.5,0.2-0.8,0.3s-0.9,0.1-1.7,0.1c-0.8,0-1.4,0-1.7-0.1
		c-0.4-0.1-0.6-0.2-0.8-0.3s-0.2-0.3-0.2-0.6v-1.9c-1,1-2.1,1.8-3.3,2.4s-2.6,0.9-4.1,0.9c-1.2,0-2.4-0.2-3.4-0.5
		c-1-0.3-1.9-0.8-2.7-1.4s-1.4-1.4-1.8-2.4s-0.6-2-0.6-3.3c0-1.4,0.3-2.6,0.8-3.6c0.5-1,1.3-1.8,2.4-2.5s2.4-1.1,4-1.5
		c1.6-0.3,3.4-0.5,5.5-0.5h2.3v-1.4c0-0.7-0.1-1.4-0.2-1.9c-0.1-0.6-0.4-1-0.7-1.4c-0.3-0.4-0.8-0.6-1.4-0.8
		c-0.6-0.2-1.3-0.3-2.1-0.3c-1.1,0-2.1,0.1-3,0.4c-0.9,0.2-1.6,0.5-2.3,0.8c-0.7,0.3-1.2,0.6-1.7,0.8s-0.8,0.4-1.1,0.4
		c-0.2,0-0.4-0.1-0.5-0.2c-0.1-0.1-0.3-0.3-0.4-0.5c-0.1-0.2-0.2-0.5-0.2-0.8s-0.1-0.7-0.1-1.1c0-0.5,0-1,0.1-1.3
		c0.1-0.3,0.3-0.6,0.5-0.9c0.2-0.3,0.7-0.5,1.3-0.8c0.6-0.3,1.3-0.6,2.2-0.9s1.7-0.5,2.7-0.6c1-0.2,2-0.2,3-0.2
		c1.8,0,3.4,0.2,4.7,0.5c1.3,0.4,2.4,0.9,3.2,1.7c0.8,0.7,1.5,1.7,1.8,2.9c0.4,1.2,0.6,2.6,0.6,4.2V48.1z M154.2,38.1h-2.5
		c-1.1,0-2,0.1-2.7,0.2c-0.8,0.2-1.4,0.4-1.8,0.7s-0.8,0.7-1,1.1c-0.2,0.4-0.3,1-0.3,1.5c0,1,0.3,1.8,0.9,2.3
		c0.6,0.6,1.5,0.8,2.6,0.8c0.9,0,1.8-0.2,2.6-0.7c0.8-0.5,1.6-1.2,2.4-2.1V38.1z"/>
</g>
<g class="st0">
	<path class="st1" d="M179.9,49l-2.8,8.3c-0.2,0.4-0.6,0.8-1.3,0.9c-0.7,0.2-1.7,0.3-3.1,0.3c-0.7,0-1.3,0-1.7-0.1s-0.7-0.2-0.9-0.3
		c-0.2-0.1-0.3-0.3-0.3-0.5s0-0.5,0.2-0.8l3.1-7.9c-0.2-0.1-0.4-0.3-0.6-0.5c-0.2-0.2-0.3-0.5-0.4-0.7L164,26.2
		c-0.2-0.6-0.3-1.1-0.3-1.4s0.1-0.6,0.3-0.8c0.2-0.2,0.6-0.3,1.1-0.4c0.5-0.1,1.2-0.1,2-0.1c0.8,0,1.3,0,1.8,0c0.4,0,0.8,0.1,1,0.2
		c0.2,0.1,0.4,0.3,0.6,0.5c0.1,0.2,0.2,0.5,0.4,0.9l5.5,15.7h0.1l5-16c0.1-0.5,0.2-0.8,0.4-0.9c0.2-0.1,0.4-0.3,0.8-0.3
		c0.4-0.1,1.1-0.1,2-0.1c0.8,0,1.4,0,1.9,0.1c0.5,0.1,0.9,0.2,1.1,0.4c0.2,0.2,0.4,0.5,0.4,0.8c0,0.3-0.1,0.7-0.2,1.1L179.9,49z"/>
	<path class="st1" d="M231.9,48c0,0.2,0,0.3-0.1,0.5c-0.1,0.1-0.3,0.3-0.5,0.3c-0.3,0.1-0.6,0.2-1,0.2c-0.4,0.1-1,0.1-1.6,0.1
		c-0.6,0-1.2,0-1.6-0.1c-0.4-0.1-0.8-0.1-1-0.2c-0.2-0.1-0.4-0.2-0.5-0.3c-0.1-0.1-0.2-0.3-0.2-0.5V20.3h-0.1L215.4,48
		c-0.1,0.2-0.2,0.4-0.3,0.6c-0.2,0.1-0.4,0.3-0.6,0.4c-0.3,0.1-0.6,0.1-1,0.2c-0.4,0-0.9,0-1.5,0s-1.1,0-1.5-0.1
		c-0.4,0-0.8-0.1-1-0.2c-0.3-0.1-0.5-0.2-0.6-0.4c-0.2-0.1-0.3-0.3-0.3-0.5l-9.5-27.7h-0.1V48c0,0.2,0,0.3-0.1,0.5
		c-0.1,0.1-0.3,0.3-0.5,0.3c-0.3,0.1-0.6,0.2-1,0.2c-0.4,0.1-0.9,0.1-1.6,0.1c-0.6,0-1.2,0-1.6-0.1c-0.4-0.1-0.8-0.1-1-0.2
		c-0.3-0.1-0.4-0.2-0.5-0.3c-0.1-0.1-0.1-0.3-0.1-0.5V17.7c0-0.9,0.2-1.6,0.7-2c0.5-0.5,1.1-0.7,1.9-0.7h4.5c0.8,0,1.5,0.1,2.1,0.2
		c0.6,0.1,1.1,0.4,1.5,0.7c0.4,0.3,0.8,0.7,1.1,1.2c0.3,0.5,0.5,1.1,0.7,1.9l7.4,20.3h0.1l7.6-20.2c0.2-0.7,0.5-1.4,0.7-1.9
		c0.3-0.5,0.6-0.9,0.9-1.2s0.8-0.5,1.3-0.7c0.5-0.1,1.1-0.2,1.7-0.2h4.7c0.5,0,0.9,0.1,1.2,0.2c0.3,0.1,0.6,0.3,0.8,0.5
		c0.2,0.2,0.4,0.5,0.5,0.9s0.2,0.7,0.2,1.2V48z"/>
	<path class="st1" d="M258.9,48.1c0,0.2-0.1,0.4-0.3,0.6c-0.2,0.1-0.5,0.2-0.8,0.3s-0.9,0.1-1.7,0.1c-0.8,0-1.4,0-1.7-0.1
		c-0.4-0.1-0.6-0.2-0.8-0.3c-0.1-0.1-0.2-0.3-0.2-0.6v-1.9c-1,1-2.1,1.8-3.3,2.4s-2.6,0.9-4.1,0.9c-1.2,0-2.4-0.2-3.4-0.5
		s-1.9-0.8-2.7-1.4c-0.8-0.6-1.4-1.4-1.8-2.4c-0.4-0.9-0.6-2-0.6-3.3c0-1.4,0.3-2.6,0.8-3.6s1.3-1.8,2.4-2.5c1.1-0.7,2.4-1.1,4-1.5
		s3.4-0.5,5.5-0.5h2.3v-1.4c0-0.7-0.1-1.4-0.2-1.9c-0.1-0.6-0.4-1-0.7-1.4c-0.3-0.4-0.8-0.6-1.4-0.8c-0.6-0.2-1.3-0.3-2.1-0.3
		c-1.1,0-2.1,0.1-3,0.4c-0.9,0.2-1.6,0.5-2.3,0.8c-0.7,0.3-1.2,0.6-1.7,0.8c-0.4,0.2-0.8,0.4-1.1,0.4c-0.2,0-0.4-0.1-0.5-0.2
		c-0.1-0.1-0.3-0.3-0.4-0.5c-0.1-0.2-0.2-0.5-0.2-0.8s-0.1-0.7-0.1-1.1c0-0.5,0-1,0.1-1.3c0.1-0.3,0.3-0.6,0.5-0.9s0.7-0.5,1.3-0.8
		c0.6-0.3,1.3-0.6,2.2-0.9c0.8-0.3,1.7-0.5,2.7-0.6c1-0.2,2-0.2,3-0.2c1.8,0,3.4,0.2,4.7,0.5c1.3,0.4,2.4,0.9,3.2,1.7
		c0.8,0.7,1.5,1.7,1.8,2.9c0.4,1.2,0.6,2.6,0.6,4.2V48.1z M252.4,38.1h-2.5c-1.1,0-2,0.1-2.7,0.2c-0.8,0.2-1.4,0.4-1.8,0.7
		c-0.5,0.3-0.8,0.7-1,1.1c-0.2,0.4-0.3,1-0.3,1.5c0,1,0.3,1.8,0.9,2.3c0.6,0.6,1.5,0.8,2.6,0.8c0.9,0,1.8-0.2,2.6-0.7
		c0.8-0.5,1.6-1.2,2.4-2.1V38.1z"/>
</g>
<g class="st0">
	<path class="st1" d="M282,41.4c0,1.3-0.3,2.5-0.7,3.5c-0.5,1-1.2,1.9-2.1,2.5c-0.9,0.7-2,1.2-3.2,1.5s-2.6,0.5-4,0.5
		c-0.9,0-1.7-0.1-2.5-0.2c-0.8-0.1-1.5-0.3-2.1-0.5c-0.6-0.2-1.2-0.4-1.6-0.6c-0.4-0.2-0.7-0.4-0.9-0.6c-0.2-0.2-0.3-0.5-0.4-0.9
		c-0.1-0.4-0.2-1-0.2-1.7c0-0.5,0-0.9,0.1-1.2s0.1-0.6,0.2-0.7c0.1-0.2,0.2-0.3,0.3-0.4s0.2-0.1,0.4-0.1c0.2,0,0.5,0.1,0.9,0.3
		s0.8,0.5,1.4,0.7s1.2,0.5,2,0.7c0.7,0.2,1.6,0.3,2.5,0.3c0.6,0,1.1-0.1,1.6-0.2c0.5-0.1,0.9-0.3,1.2-0.5s0.6-0.5,0.8-0.9
		s0.3-0.8,0.3-1.2c0-0.5-0.2-1-0.5-1.4c-0.3-0.4-0.8-0.7-1.3-1c-0.5-0.3-1.1-0.5-1.8-0.8c-0.7-0.2-1.4-0.5-2.1-0.8
		c-0.7-0.3-1.4-0.6-2.1-1s-1.3-0.9-1.8-1.4c-0.5-0.6-1-1.2-1.3-2c-0.3-0.8-0.5-1.7-0.5-2.8c0-1.1,0.2-2.2,0.7-3.1
		c0.4-0.9,1.1-1.7,1.9-2.4c0.8-0.7,1.8-1.2,3-1.6c1.2-0.4,2.5-0.6,4-0.6c0.7,0,1.5,0.1,2.1,0.2c0.7,0.1,1.3,0.2,1.9,0.4
		c0.6,0.2,1,0.3,1.4,0.5c0.4,0.2,0.7,0.3,0.8,0.5c0.2,0.1,0.3,0.3,0.4,0.4c0.1,0.1,0.1,0.3,0.2,0.5c0,0.2,0.1,0.4,0.1,0.7
		c0,0.3,0,0.6,0,1c0,0.5,0,0.9,0,1.2c0,0.3-0.1,0.5-0.1,0.7c-0.1,0.2-0.1,0.3-0.3,0.4c-0.1,0.1-0.2,0.1-0.4,0.1
		c-0.2,0-0.4-0.1-0.7-0.3c-0.3-0.2-0.7-0.4-1.2-0.6c-0.5-0.2-1.1-0.4-1.7-0.6s-1.4-0.3-2.2-0.3c-0.6,0-1.1,0.1-1.6,0.2
		c-0.4,0.1-0.8,0.3-1.1,0.5c-0.3,0.2-0.5,0.5-0.6,0.8s-0.2,0.6-0.2,1c0,0.5,0.2,1,0.5,1.4s0.8,0.7,1.3,1s1.2,0.5,1.9,0.8
		c0.7,0.2,1.4,0.5,2.1,0.8s1.4,0.6,2.1,1c0.7,0.4,1.3,0.9,1.9,1.4c0.5,0.6,1,1.2,1.3,2S282,40.4,282,41.4z"/>
</g>
<g class="st0">
	<path class="st1" d="M300.2,45.8c0,0.8,0,1.4-0.1,1.8c-0.1,0.4-0.2,0.7-0.4,0.9c-0.2,0.2-0.4,0.3-0.7,0.4c-0.3,0.1-0.7,0.2-1.1,0.3
		c-0.4,0.1-0.9,0.2-1.3,0.2c-0.5,0.1-1,0.1-1.5,0.1c-1.3,0-2.5-0.2-3.4-0.5s-1.8-0.8-2.4-1.5c-0.6-0.7-1.1-1.6-1.4-2.6
		c-0.3-1.1-0.4-2.3-0.4-3.7v-12h-2.8c-0.3,0-0.6-0.2-0.8-0.6c-0.2-0.4-0.3-1.1-0.3-2.1c0-0.5,0-0.9,0.1-1.3c0-0.4,0.1-0.6,0.2-0.8
		c0.1-0.2,0.2-0.3,0.3-0.4c0.1-0.1,0.3-0.1,0.5-0.1h2.8v-5.2c0-0.2,0-0.3,0.1-0.5c0.1-0.1,0.3-0.3,0.5-0.4s0.6-0.2,1-0.2
		c0.4,0,1-0.1,1.6-0.1c0.6,0,1.2,0,1.6,0.1c0.4,0,0.8,0.1,1,0.2c0.2,0.1,0.4,0.2,0.5,0.4c0.1,0.1,0.2,0.3,0.2,0.5v5.2h5.1
		c0.2,0,0.3,0,0.5,0.1c0.1,0.1,0.2,0.2,0.3,0.4c0.1,0.2,0.2,0.5,0.2,0.8s0.1,0.8,0.1,1.3c0,1-0.1,1.7-0.3,2.1
		c-0.2,0.4-0.4,0.6-0.8,0.6h-5.1v11c0,1.3,0.2,2.2,0.6,2.9c0.4,0.6,1.1,1,2.2,1c0.3,0,0.7,0,0.9-0.1c0.3-0.1,0.5-0.1,0.7-0.2
		c0.2-0.1,0.4-0.1,0.6-0.2c0.1-0.1,0.3-0.1,0.4-0.1c0.1,0,0.2,0,0.3,0.1c0.1,0.1,0.2,0.2,0.2,0.4c0.1,0.2,0.1,0.4,0.1,0.7
		S300.2,45.3,300.2,45.8z"/>
</g>
<g class="st0">
	<path class="st1" d="M326,35.7c0,0.8-0.2,1.4-0.5,1.8c-0.4,0.4-0.9,0.6-1.5,0.6h-14.3c0,1,0.1,1.9,0.4,2.7c0.2,0.8,0.6,1.5,1.1,2.1
		c0.5,0.6,1.2,1,2,1.3c0.8,0.3,1.8,0.4,2.9,0.4c1.2,0,2.2-0.1,3-0.2c0.9-0.2,1.6-0.4,2.3-0.6c0.6-0.2,1.2-0.4,1.6-0.6
		c0.4-0.2,0.8-0.3,1-0.3c0.2,0,0.3,0,0.4,0.1c0.1,0.1,0.2,0.2,0.3,0.3c0.1,0.2,0.1,0.4,0.1,0.7s0,0.7,0,1.1c0,0.4,0,0.7,0,1
		s0,0.5-0.1,0.7c0,0.2-0.1,0.4-0.2,0.5c-0.1,0.1-0.2,0.3-0.3,0.4c-0.1,0.1-0.4,0.3-0.9,0.5c-0.5,0.2-1.2,0.4-1.9,0.6
		c-0.8,0.2-1.7,0.4-2.7,0.5c-1,0.1-2.1,0.2-3.3,0.2c-2.1,0-3.9-0.3-5.5-0.8c-1.6-0.5-2.9-1.3-3.9-2.4c-1.1-1.1-1.8-2.4-2.4-4
		c-0.5-1.6-0.8-3.5-0.8-5.7c0-2.1,0.3-4,0.8-5.6c0.5-1.7,1.3-3.1,2.4-4.3c1-1.2,2.3-2.1,3.8-2.7c1.5-0.6,3.1-0.9,5-0.9
		c2,0,3.6,0.3,5,0.9c1.4,0.6,2.5,1.4,3.4,2.4c0.9,1,1.6,2.2,2,3.6c0.4,1.4,0.6,2.9,0.6,4.6V35.7z M319.6,33.8
		c0.1-1.9-0.3-3.3-1.1-4.4c-0.8-1.1-2-1.6-3.7-1.6c-0.8,0-1.6,0.2-2.2,0.5s-1.1,0.7-1.6,1.3c-0.4,0.5-0.7,1.2-0.9,1.9
		c-0.2,0.7-0.3,1.5-0.4,2.3H319.6z"/>
	<path class="st1" d="M346.5,26.8c0,0.6,0,1.1-0.1,1.6c0,0.4-0.1,0.7-0.2,0.9s-0.2,0.4-0.3,0.5s-0.3,0.1-0.4,0.1
		c-0.1,0-0.3,0-0.5-0.1c-0.2-0.1-0.4-0.1-0.6-0.2c-0.2-0.1-0.5-0.1-0.7-0.2s-0.6-0.1-0.9-0.1c-0.4,0-0.7,0.1-1.1,0.2
		c-0.4,0.1-0.7,0.4-1.1,0.7c-0.4,0.3-0.8,0.7-1.2,1.3c-0.4,0.5-0.9,1.2-1.4,1.9v14.6c0,0.2-0.1,0.3-0.2,0.5
		c-0.1,0.1-0.3,0.2-0.5,0.3c-0.3,0.1-0.6,0.2-1,0.2c-0.4,0-1,0.1-1.6,0.1s-1.2,0-1.6-0.1c-0.4,0-0.8-0.1-1-0.2
		c-0.3-0.1-0.4-0.2-0.5-0.3c-0.1-0.1-0.2-0.3-0.2-0.5V24.6c0-0.2,0-0.3,0.1-0.5c0.1-0.1,0.2-0.2,0.5-0.3c0.2-0.1,0.5-0.2,0.9-0.2
		c0.4,0,0.8-0.1,1.4-0.1c0.6,0,1,0,1.4,0.1c0.4,0,0.7,0.1,0.9,0.2c0.2,0.1,0.3,0.2,0.4,0.3c0.1,0.1,0.1,0.3,0.1,0.5v2.9
		c0.6-0.9,1.2-1.6,1.7-2.2s1.1-1,1.6-1.4s1-0.6,1.5-0.7c0.5-0.1,1-0.2,1.5-0.2c0.2,0,0.5,0,0.7,0s0.5,0.1,0.8,0.1
		c0.3,0.1,0.5,0.1,0.7,0.2c0.2,0.1,0.4,0.2,0.5,0.3s0.2,0.2,0.2,0.3c0,0.1,0.1,0.2,0.1,0.4c0,0.2,0.1,0.5,0.1,0.8
		C346.5,25.7,346.5,26.2,346.5,26.8z"/>
</g>
<g>
	<path class="st1" d="M51.5,34.7L8.3,14.3V0l43.3,20.4L94.8,0v14.3L51.5,34.7z M13.3,11.1l38.3,18.1l38.3-18.1V7.9L51.5,26L13.3,7.9
		V11.1z"/>
</g>
<g>
	<path class="st1" d="M51.5,81.7L0,58.3V4.8l51.5,24.4l51.5-24.4v53.4L51.5,81.7z M5,55l46.5,21.1L98.1,55V12.7l-46.5,22L5,12.7V55z
		"/>
</g>
</svg>
